<?xml version="1.0" encoding="UTF-8"?>
<!DOCTYPE svg PUBLIC "-//W3C//DTD SVG 1.1//EN" "http://www.w3.org/Graphics/SVG/1.1/DTD/svg11.dtd">
<svg version="1.1" xmlns="http://www.w3.org/2000/svg" xmlns:xlink="http://www.w3.org/1999/xlink" x="0" y="0" width="600" height="300" viewBox="0, 0, 600, 300">
  <defs>
    <radialGradient id="Gradient_1" gradientUnits="userSpaceOnUse" cx="300.773" cy="159.001" r="374.025">
      <stop offset="0" stop-color="#EAEAEA"/>
      <stop offset="1" stop-color="#0088EE"/>
    </radialGradient>
  </defs>
  <g id="Layer_1" display="none">
    <path d="M-0,0 L600,0 L600,300 L-0,300 L-0,0 z" fill="url(#Gradient_1)"/>
  </g>
  <g id="Layer_2">
    <g>
      <path d="M300.5,250.5 C245.272,250.5 200.5,205.728 200.5,150.5 C200.5,95.272 245.272,50.5 300.5,50.5 C355.729,50.5 400.5,95.272 400.5,150.5 C400.5,205.728 355.729,250.5 300.5,250.5 z" fill="#FFFFFF"/>
      <path d="M300.5,250.5 C245.272,250.5 200.5,205.728 200.5,150.5 C200.5,95.272 245.272,50.5 300.5,50.5 C355.729,50.5 400.5,95.272 400.5,150.5 C400.5,205.728 355.729,250.5 300.5,250.5 z" fill-opacity="0" stroke="#000000" stroke-width="18"/>
    </g>
    <path d="M0.5,0.5 L0.5,0.5" fill-opacity="0" stroke="#000000" stroke-width="10"/>
    <path d="M0.5,0.5 L0.5,0.5" fill-opacity="0" stroke="#000000" stroke-width="10"/>
    <g>
      <path d="M48.5,149.84 L130.3,149.84" fill-opacity="0" stroke="#000000" stroke-width="20"/>
      <path d="M130.3,164.24 L168.7,149.84 L130.3,135.44 z" fill="#000000" fill-opacity="1" stroke="#000000" stroke-width="20" stroke-opacity="1"/>
    </g>
    <path d="M0.5,0.5 L0.5,0.5" fill-opacity="0" stroke="#000000" stroke-width="7"/>
    <path d="M0.5,0.5 L0.5,0.5" fill-opacity="0" stroke="#000000" stroke-width="10"/>
    <g>
      <path d="M403.5,142.507 C531.5,43.507 533.5,150.507 533.5,150.507 C534.08,208.466 492.333,205.623 457.129,192.988" fill-opacity="0" stroke="#000000" stroke-width="20"/>
      <path d="M463.496,180.073 L422.687,176.008 L450.761,205.904 z" fill="#000000" fill-opacity="1" stroke="#000000" stroke-width="20" stroke-opacity="1"/>
    </g>
    <text transform="matrix(1, 0, 0, 1, 484.306, 86)">
      <tspan x="-25.02" y="-2" font-family="HelveticaNeue-Bold" font-size="36" fill="#000000">0,1</tspan>
    </text>
    <path d="M300.5,224.84 C259.079,224.84 225.5,191.261 225.5,149.84 C225.5,108.418 259.079,74.84 300.5,74.84 C341.921,74.84 375.5,108.418 375.5,149.84 C375.5,191.261 341.921,224.84 300.5,224.84 z" fill-opacity="0" stroke="#7980F9" stroke-width="10"/>
    <path d="M300.5,200.482 C272.886,200.482 250.5,178.097 250.5,150.482 C250.5,122.868 272.886,100.482 300.5,100.482 C328.114,100.482 350.5,122.868 350.5,150.482 C350.5,178.097 328.114,200.482 300.5,200.482 z" fill-opacity="0" stroke="#7980F9" stroke-width="10"/>
    <g>
      <path d="M250.5,113.482 L350.5,113.482 L350.5,164.5 L250.5,164.5 L250.5,113.482 z" fill="#FFFFFF"/>
      <path d="M250.5,113.482 L350.5,113.482 L350.5,164.5 L250.5,164.5 L250.5,113.482 z" fill-opacity="0" stroke="#FFFFFF" stroke-width="10"/>
    </g>
    <g>
      <path d="M264.5,99.482 L339.5,99.482 L339.5,123.5 L264.5,123.5 L264.5,99.482 z" fill="#FFFFFF"/>
      <path d="M264.5,99.482 L339.5,99.482 L339.5,123.5 L264.5,123.5 L264.5,99.482 z" fill-opacity="0" stroke="#FFFFFF" stroke-width="10"/>
    </g>
    <g>
      <path d="M266.5,144.5 C260.977,144.5 256.5,140.023 256.5,134.5 C256.5,128.977 260.977,124.5 266.5,124.5 C272.023,124.5 276.5,128.977 276.5,134.5 C276.5,140.023 272.023,144.5 266.5,144.5 z" fill="#7880F9"/>
      <path d="M266.5,144.5 C260.977,144.5 256.5,140.023 256.5,134.5 C256.5,128.977 260.977,124.5 266.5,124.5 C272.023,124.5 276.5,128.977 276.5,134.5 C276.5,140.023 272.023,144.5 266.5,144.5 z" fill-opacity="0" stroke="#7980F9" stroke-width="10"/>
    </g>
    <g>
      <path d="M334.5,144.5 C328.977,144.5 324.5,140.023 324.5,134.5 C324.5,128.977 328.977,124.5 334.5,124.5 C340.023,124.5 344.5,128.977 344.5,134.5 C344.5,140.023 340.023,144.5 334.5,144.5 z" fill="#7880F9"/>
      <path d="M334.5,144.5 C328.977,144.5 324.5,140.023 324.5,134.5 C324.5,128.977 328.977,124.5 334.5,124.5 C340.023,124.5 344.5,128.977 344.5,134.5 C344.5,140.023 340.023,144.5 334.5,144.5 z" fill-opacity="0" stroke="#7980F9" stroke-width="10"/>
    </g>
  </g>
</svg>
